# Blender 5.2.0 LTS
# www.blender.org
mtllib boneclaw mag fix2.mtl
o RenderMesh_89041732282055
v 0.030222 -0.322012 -0.123321
v 0.030230 -0.322012 0.123631
v -0.002356 -0.317577 -0.123320
v -0.002348 -0.317577 0.123632
v 0.069537 0.210634 -0.123323
v 0.069545 0.210634 0.123629
v 0.102114 0.206201 -0.123324
v 0.102122 0.206201 0.123628
v 0.149971 -0.338310 -0.123325
v 0.149979 -0.338309 0.123627
v 0.117394 -0.333876 -0.123324
v 0.117402 -0.333876 0.123628
v 0.189287 0.194336 -0.123326
v 0.189295 0.194336 0.123626
v 0.221863 0.189901 -0.123327
v 0.221871 0.189902 0.123625
v -0.089527 -0.305713 -0.123317
v -0.089519 -0.305713 0.123635
v -0.122105 -0.301278 -0.123316
v -0.122097 -0.301278 0.123636
v -0.050212 0.226933 -0.123319
v -0.050204 0.226933 0.123633
v -0.017635 0.222499 -0.123320
v -0.017627 0.222499 0.123632
v 0.221863 0.189901 -0.123327
v 0.221871 0.189902 0.123625
v 0.240571 0.087995 -0.123328
v 0.240579 0.087995 0.123624
v 0.247303 -0.026013 -0.123328
v 0.247311 -0.026013 0.123624
v 0.232190 -0.137049 -0.123327
v 0.232198 -0.137048 0.123625
v 0.195233 -0.245109 -0.123326
v 0.195241 -0.245109 0.123626
v 0.149971 -0.338310 -0.123325
v 0.149979 -0.338309 0.123627
v -0.031505 0.125026 -0.123319
v -0.031497 0.125026 0.123633
v -0.050212 0.226933 -0.123319
v -0.050204 0.226933 0.123633
v -0.024765 0.011018 0.123632
v -0.024773 0.011018 -0.123320
v -0.039877 -0.100017 0.123633
v -0.039885 -0.100017 -0.123319
v -0.076835 -0.208077 0.123634
v -0.076843 -0.208078 -0.123318
v -0.122097 -0.301278 0.123636
v -0.122105 -0.301278 -0.123316
v 0.088252 0.108728 0.123629
v 0.102122 0.206201 0.123628
v 0.069545 0.210634 0.123629
v 0.120830 0.104294 0.123628
v 0.094984 -0.005280 0.123629
v 0.127561 -0.009714 0.123628
v 0.079872 -0.116316 0.123629
v 0.112448 -0.120749 0.123628
v 0.075492 -0.228810 0.123630
v 0.042914 -0.224377 0.123631
v 0.030230 -0.322012 0.123631
v -0.002348 -0.317577 0.123632
v 0.102114 0.206201 -0.123324
v 0.088244 0.108727 -0.123323
v 0.069537 0.210634 -0.123323
v 0.120822 0.104293 -0.123324
v 0.094976 -0.005280 -0.123323
v 0.127553 -0.009715 -0.123324
v 0.079864 -0.116316 -0.123323
v 0.112440 -0.120749 -0.123324
v 0.075484 -0.228810 -0.123322
v 0.042906 -0.224377 -0.123321
v 0.030222 -0.322012 -0.123321
v -0.002356 -0.317577 -0.123320
v 0.208002 0.092429 0.123625
v 0.221871 0.189902 0.123625
v 0.189295 0.194336 0.123626
v 0.240579 0.087995 0.123624
v 0.214733 -0.021579 0.123625
v 0.247311 -0.026013 0.123624
v 0.199621 -0.132614 0.123626
v 0.232198 -0.137048 0.123625
v 0.195241 -0.245109 0.123626
v 0.162664 -0.240676 0.123627
v 0.149979 -0.338309 0.123627
v 0.117402 -0.333876 0.123628
v 0.221863 0.189901 -0.123327
v 0.207994 0.092429 -0.123327
v 0.189287 0.194336 -0.123326
v 0.240571 0.087995 -0.123328
v 0.214725 -0.021579 -0.123327
v 0.247303 -0.026013 -0.123328
v 0.199613 -0.132614 -0.123326
v 0.232190 -0.137049 -0.123327
v 0.195233 -0.245109 -0.123326
v 0.162656 -0.240676 -0.123325
v 0.149971 -0.338310 -0.123325
v 0.117394 -0.333876 -0.123324
v -0.031497 0.125026 0.123633
v -0.017627 0.222499 0.123632
v -0.050204 0.226933 0.123633
v 0.001081 0.120592 0.123632
v -0.024765 0.011018 0.123632
v 0.007812 0.006584 0.123631
v -0.039877 -0.100017 0.123633
v -0.007301 -0.104451 0.123632
v -0.044257 -0.212513 0.123633
v -0.076835 -0.208077 0.123634
v -0.089519 -0.305713 0.123635
v -0.122097 -0.301278 0.123636
v -0.017635 0.222499 -0.123320
v -0.031505 0.125026 -0.123319
v -0.050212 0.226933 -0.123319
v 0.001073 0.120592 -0.123320
v -0.024773 0.011018 -0.123320
v 0.007804 0.006584 -0.123321
v -0.039885 -0.100017 -0.123319
v -0.007309 -0.104451 -0.123320
v -0.044265 -0.212513 -0.123319
v -0.076843 -0.208078 -0.123318
v -0.089527 -0.305713 -0.123317
v -0.122105 -0.301278 -0.123316
v 0.102122 0.206201 0.123628
v 0.120822 0.104293 -0.123324
v 0.102114 0.206201 -0.123324
v 0.120830 0.104294 0.123628
v 0.127553 -0.009715 -0.123324
v 0.127561 -0.009714 0.123628
v 0.112440 -0.120749 -0.123324
v 0.112448 -0.120749 0.123628
v 0.075484 -0.228810 -0.123322
v 0.075492 -0.228810 0.123630
v 0.030222 -0.322012 -0.123321
v 0.030230 -0.322012 0.123631
v 0.088244 0.108727 -0.123323
v 0.088252 0.108728 0.123629
v 0.069537 0.210634 -0.123323
v 0.069545 0.210634 0.123629
v 0.094984 -0.005280 0.123629
v 0.094976 -0.005280 -0.123323
v 0.079872 -0.116316 0.123629
v 0.079864 -0.116316 -0.123323
v 0.042914 -0.224377 0.123631
v 0.042906 -0.224377 -0.123321
v -0.002348 -0.317577 0.123632
v -0.002356 -0.317577 -0.123320
v -0.017635 0.222499 -0.123320
v -0.017627 0.222499 0.123632
v 0.001073 0.120592 -0.123320
v 0.001081 0.120592 0.123632
v 0.007804 0.006584 -0.123321
v 0.007812 0.006584 0.123631
v -0.007309 -0.104451 -0.123320
v -0.007301 -0.104451 0.123632
v -0.044265 -0.212513 -0.123319
v -0.044257 -0.212513 0.123633
v -0.089527 -0.305713 -0.123317
v -0.089519 -0.305713 0.123635
v 0.207994 0.092429 -0.123327
v 0.208002 0.092429 0.123625
v 0.189287 0.194336 -0.123326
v 0.189295 0.194336 0.123626
v 0.214733 -0.021579 0.123625
v 0.214725 -0.021579 -0.123327
v 0.199621 -0.132614 0.123626
v 0.199613 -0.132614 -0.123326
v 0.162664 -0.240676 0.123627
v 0.162656 -0.240676 -0.123325
v 0.117402 -0.333876 0.123628
v 0.117394 -0.333876 -0.123324
v 0.266619 0.213671 -0.117925
v -0.099570 0.263513 -0.117914
v -0.099563 0.263513 0.118228
v 0.266626 0.213671 0.118217
v -0.238061 -0.425801 -0.141523
v 0.201366 -0.485610 -0.141536
v 0.201375 -0.485610 0.141834
v -0.238052 -0.425801 0.141847
v -0.238061 -0.425801 -0.141523
v -0.228970 -0.359277 0.141847
v -0.228979 -0.359277 -0.141523
v -0.238052 -0.425801 0.141847
v 0.266619 0.213671 -0.117925
v 0.266626 0.213671 0.118217
v 0.287061 0.093650 -0.117925
v 0.287068 0.093650 0.118217
v 0.294575 -0.024611 -0.117925
v 0.294582 -0.024611 0.118217
v 0.278907 -0.139718 -0.117925
v 0.278914 -0.139718 0.118217
v 0.240061 -0.251670 -0.117924
v 0.240068 -0.251670 0.118218
v 0.188286 -0.361862 -0.117922
v 0.188293 -0.361861 0.118220
v 0.210457 -0.419087 0.141833
v 0.210448 -0.419087 -0.141537
v 0.201375 -0.485610 0.141834
v 0.201366 -0.485610 -0.141536
v 0.210448 -0.419087 -0.141537
v 0.210457 -0.419087 0.141833
v -0.099570 0.263513 -0.117914
v -0.079128 0.143491 -0.117914
v -0.079121 0.143491 0.118228
v -0.099563 0.263513 0.118228
v -0.071608 0.025229 0.118228
v -0.071615 0.025229 -0.117914
v -0.087275 -0.089877 0.118228
v -0.087282 -0.089877 -0.117914
v -0.126121 -0.201829 0.118230
v -0.126128 -0.201829 -0.117912
v -0.177896 -0.312022 0.118231
v -0.177903 -0.312022 -0.117911
v -0.228979 -0.359277 -0.141523
v -0.228970 -0.359277 0.141847
v 0.201366 -0.485610 -0.141536
v -0.228979 -0.359277 -0.141523
v 0.210448 -0.419087 -0.141537
v -0.238061 -0.425801 -0.141523
v 0.201375 -0.485610 0.141834
v -0.228970 -0.359277 0.141847
v -0.238052 -0.425801 0.141847
v 0.210457 -0.419087 0.141833
v 0.266626 0.213671 0.118217
v -0.079121 0.143491 0.118228
v 0.287068 0.093650 0.118217
v -0.099563 0.263513 0.118228
v -0.071608 0.025229 0.118228
v 0.294582 -0.024611 0.118217
v 0.278914 -0.139718 0.118217
v -0.087275 -0.089877 0.118228
v 0.240068 -0.251670 0.118218
v -0.126121 -0.201829 0.118230
v 0.188293 -0.361861 0.118220
v -0.177896 -0.312022 0.118231
v 0.210457 -0.419087 0.141833
v -0.228970 -0.359277 0.141847
v 0.266619 0.213671 -0.117925
v -0.079128 0.143491 -0.117914
v -0.099570 0.263513 -0.117914
v 0.287061 0.093650 -0.117925
v -0.071615 0.025229 -0.117914
v 0.294575 -0.024611 -0.117925
v 0.278907 -0.139718 -0.117925
v -0.087282 -0.089877 -0.117914
v 0.240061 -0.251670 -0.117924
v -0.126128 -0.201829 -0.117912
v 0.188286 -0.361862 -0.117922
v -0.177903 -0.312022 -0.117911
v 0.210448 -0.419087 -0.141537
v -0.228979 -0.359277 -0.141523
vn -0.1349 -0.9909 -0.0000
vn 0.1348 0.9909 -0.0000
vn -0.1348 -0.9909 -0.0000
vn 0.1349 0.9909 -0.0000
vn 0.9836 0.1806 -0.0000
vn 0.9928 0.1200 -0.0000
vn 0.9993 -0.0381 -0.0000
vn 0.9726 -0.2324 -0.0000
vn 0.9242 -0.3820 -0.0000
vn 0.8995 -0.4368 -0.0000
vn 0.8995 -0.4369 -0.0000
vn -0.9928 -0.1200 -0.0000
vn -0.9836 -0.1806 -0.0000
vn -0.9993 0.0381 -0.0000
vn -0.9726 0.2323 -0.0000
vn -0.9245 0.3812 -0.0000
vn -0.9242 0.3819 -0.0000
vn -0.8995 0.4368 -0.0000
vn -0.8995 0.4369 -0.0000
vn -0.0000 -0.0000 1.0000
vn -0.0000 -0.0000 -1.0000
vn -0.9241 0.3821 -0.0000
vn -0.9244 0.3814 -0.0000
vn 0.9726 -0.2323 -0.0000
vn 0.9242 -0.3819 -0.0000
vn -0.9726 0.2324 -0.0000
vn -0.9241 0.3822 -0.0000
vn -0.9908 0.1353 -0.0000
vn 0.9858 0.1679 -0.0000
vn 0.9933 0.1158 -0.0000
vn 0.9994 -0.0359 -0.0000
vn 0.9993 -0.0363 -0.0000
vn 0.9721 -0.2348 -0.0000
vn 0.9721 -0.2346 -0.0000
vn 0.9262 -0.3771 -0.0000
vn 1.0000 -0.0045 -0.0000
vn 0.9325 0.3612 -0.0000
vn 0.9908 -0.1353 -0.0000
vn -0.9858 -0.1679 -0.0000
vn -0.9933 -0.1158 -0.0000
vn -0.9994 0.0359 -0.0000
vn -0.9721 0.2347 -0.0000
vn -0.9721 0.2348 -0.0000
vn -0.9262 0.3771 -0.0000
vn -0.7802 0.6255 -0.0000
vn -0.6791 0.7340 -0.0000
vn 0.0347 0.2550 0.9663
vn 0.0248 0.1819 0.9830
vn 0.0543 0.3988 0.9154
vn 0.0347 0.2550 -0.9663
vn 0.0248 0.1819 -0.9830
vn 0.0542 0.3988 -0.9154
vt 0.000000 0.000000
s 1
f 1/1/1 2/1/1 3/1/1
f 3/1/1 2/1/1 4/1/1
f 5/1/2 6/1/2 7/1/2
f 7/1/2 6/1/2 8/1/2
f 9/1/1 10/1/3 11/1/1
f 11/1/1 10/1/3 12/1/3
f 13/1/4 14/1/4 15/1/4
f 15/1/4 14/1/4 16/1/4
f 17/1/1 18/1/1 19/1/1
f 19/1/1 18/1/1 20/1/1
f 21/1/4 22/1/4 23/1/4
f 23/1/4 22/1/4 24/1/4
f 25/1/5 26/1/5 27/1/6
f 27/1/6 26/1/5 28/1/6
f 27/1/6 28/1/6 29/1/7
f 29/1/7 28/1/6 30/1/7
f 30/1/7 31/1/8 29/1/7
f 31/1/8 30/1/7 32/1/8
f 31/1/8 32/1/8 33/1/9
f 33/1/9 32/1/8 34/1/9
f 33/1/9 34/1/9 35/1/10
f 35/1/10 34/1/9 36/1/11
f 37/1/12 38/1/12 39/1/13
f 39/1/13 38/1/12 40/1/13
f 37/1/12 41/1/14 38/1/12
f 42/1/14 41/1/14 37/1/12
f 42/1/14 43/1/15 41/1/14
f 44/1/15 43/1/15 42/1/14
f 44/1/15 45/1/16 43/1/15
f 46/1/17 45/1/16 44/1/15
f 46/1/17 47/1/18 45/1/16
f 48/1/19 47/1/18 46/1/17
f 49/1/20 50/1/20 51/1/20
f 50/1/20 49/1/20 52/1/20
f 53/1/20 52/1/20 49/1/20
f 52/1/20 53/1/20 54/1/20
f 55/1/20 54/1/20 53/1/20
f 54/1/20 55/1/20 56/1/20
f 57/1/20 56/1/20 55/1/20
f 55/1/20 58/1/20 57/1/20
f 59/1/20 57/1/20 58/1/20
f 58/1/20 60/1/20 59/1/20
f 61/1/21 62/1/21 63/1/21
f 62/1/21 61/1/21 64/1/21
f 64/1/21 65/1/21 62/1/21
f 65/1/21 64/1/21 66/1/21
f 66/1/21 67/1/21 65/1/21
f 67/1/21 66/1/21 68/1/21
f 69/1/21 67/1/21 68/1/21
f 67/1/21 69/1/21 70/1/21
f 71/1/21 70/1/21 69/1/21
f 70/1/21 71/1/21 72/1/21
f 73/1/20 74/1/20 75/1/20
f 74/1/20 73/1/20 76/1/20
f 77/1/20 76/1/20 73/1/20
f 76/1/20 77/1/20 78/1/20
f 79/1/20 78/1/20 77/1/20
f 78/1/20 79/1/20 80/1/20
f 81/1/20 80/1/20 79/1/20
f 79/1/20 82/1/20 81/1/20
f 83/1/20 81/1/20 82/1/20
f 82/1/20 84/1/20 83/1/20
f 85/1/21 86/1/21 87/1/21
f 86/1/21 85/1/21 88/1/21
f 88/1/21 89/1/21 86/1/21
f 89/1/21 88/1/21 90/1/21
f 90/1/21 91/1/21 89/1/21
f 91/1/21 90/1/21 92/1/21
f 93/1/21 91/1/21 92/1/21
f 91/1/21 93/1/21 94/1/21
f 95/1/21 94/1/21 93/1/21
f 94/1/21 95/1/21 96/1/21
f 97/1/20 98/1/20 99/1/20
f 98/1/20 97/1/20 100/1/20
f 101/1/20 100/1/20 97/1/20
f 100/1/20 101/1/20 102/1/20
f 103/1/20 102/1/20 101/1/20
f 102/1/20 103/1/20 104/1/20
f 105/1/20 104/1/20 103/1/20
f 103/1/20 106/1/20 105/1/20
f 107/1/20 105/1/20 106/1/20
f 106/1/20 108/1/20 107/1/20
f 109/1/21 110/1/21 111/1/21
f 110/1/21 109/1/21 112/1/21
f 112/1/21 113/1/21 110/1/21
f 113/1/21 112/1/21 114/1/21
f 114/1/21 115/1/21 113/1/21
f 115/1/21 114/1/21 116/1/21
f 117/1/21 115/1/21 116/1/21
f 115/1/21 117/1/21 118/1/21
f 119/1/21 118/1/21 117/1/21
f 118/1/21 119/1/21 120/1/21
f 121/1/5 122/1/6 123/1/5
f 122/1/6 121/1/5 124/1/6
f 122/1/6 124/1/6 125/1/7
f 125/1/7 124/1/6 126/1/7
f 125/1/7 126/1/7 127/1/8
f 127/1/8 126/1/7 128/1/8
f 127/1/8 128/1/8 129/1/9
f 129/1/9 128/1/8 130/1/9
f 129/1/9 130/1/9 131/1/10
f 131/1/10 130/1/9 132/1/10
f 133/1/12 134/1/12 135/1/13
f 135/1/13 134/1/12 136/1/13
f 133/1/12 137/1/14 134/1/12
f 138/1/14 137/1/14 133/1/12
f 138/1/14 139/1/15 137/1/14
f 140/1/15 139/1/15 138/1/14
f 140/1/15 141/1/22 139/1/15
f 142/1/23 141/1/22 140/1/15
f 142/1/23 143/1/19 141/1/22
f 144/1/19 143/1/19 142/1/23
f 145/1/5 146/1/5 147/1/6
f 147/1/6 146/1/5 148/1/6
f 147/1/6 148/1/6 149/1/7
f 149/1/7 148/1/6 150/1/7
f 149/1/7 150/1/7 151/1/24
f 151/1/24 150/1/7 152/1/8
f 151/1/24 152/1/8 153/1/25
f 153/1/25 152/1/8 154/1/9
f 153/1/25 154/1/9 155/1/11
f 155/1/11 154/1/9 156/1/11
f 157/1/12 158/1/12 159/1/13
f 159/1/13 158/1/12 160/1/13
f 157/1/12 161/1/14 158/1/12
f 162/1/14 161/1/14 157/1/12
f 162/1/14 163/1/15 161/1/14
f 164/1/26 163/1/15 162/1/14
f 164/1/26 165/1/22 163/1/15
f 166/1/27 165/1/22 164/1/26
f 166/1/27 167/1/19 165/1/22
f 168/1/19 167/1/19 166/1/27
f 169/1/4 170/1/4 171/1/4
f 169/1/4 171/1/4 172/1/4
f 173/1/1 174/1/1 175/1/1
f 173/1/1 175/1/1 176/1/1
f 177/1/28 178/1/28 179/1/28
f 178/1/28 177/1/28 180/1/28
f 181/1/29 182/1/29 183/1/30
f 183/1/30 182/1/29 184/1/30
f 184/1/30 185/1/31 183/1/30
f 185/1/31 184/1/30 186/1/32
f 185/1/31 186/1/32 187/1/33
f 187/1/33 186/1/32 188/1/34
f 188/1/34 189/1/35 187/1/33
f 189/1/35 188/1/34 190/1/35
f 190/1/35 191/1/36 189/1/35
f 191/1/36 190/1/35 192/1/36
f 193/1/37 191/1/36 192/1/36
f 193/1/37 194/1/37 191/1/36
f 195/1/38 196/1/38 197/1/38
f 197/1/38 198/1/38 195/1/38
f 199/1/39 200/1/40 201/1/40
f 199/1/39 201/1/40 202/1/39
f 200/1/40 203/1/41 201/1/40
f 200/1/40 204/1/41 203/1/41
f 204/1/41 205/1/42 203/1/41
f 204/1/41 206/1/43 205/1/42
f 206/1/43 207/1/44 205/1/42
f 206/1/43 208/1/44 207/1/44
f 208/1/44 209/1/45 207/1/44
f 208/1/44 210/1/45 209/1/45
f 211/1/46 209/1/45 210/1/45
f 211/1/46 212/1/46 209/1/45
f 213/1/21 214/1/21 215/1/21
f 214/1/21 213/1/21 216/1/21
f 217/1/20 218/1/20 219/1/20
f 218/1/20 217/1/20 220/1/20
f 221/1/20 222/1/20 223/1/20
f 222/1/20 221/1/20 224/1/20
f 225/1/20 223/1/20 222/1/20
f 223/1/20 225/1/20 226/1/20
f 226/1/20 225/1/20 227/1/20
f 228/1/20 227/1/20 225/1/20
f 227/1/20 228/1/20 229/1/20
f 230/1/20 229/1/20 228/1/20
f 229/1/20 230/1/20 231/1/47
f 232/1/48 231/1/47 230/1/20
f 232/1/48 233/1/49 231/1/47
f 233/1/49 232/1/48 234/1/49
f 235/1/21 236/1/21 237/1/21
f 236/1/21 235/1/21 238/1/21
f 238/1/21 239/1/21 236/1/21
f 239/1/21 238/1/21 240/1/21
f 241/1/21 239/1/21 240/1/21
f 239/1/21 241/1/21 242/1/21
f 243/1/21 242/1/21 241/1/21
f 242/1/21 243/1/21 244/1/21
f 245/1/50 244/1/21 243/1/21
f 244/1/21 245/1/50 246/1/51
f 247/1/52 246/1/51 245/1/50
f 246/1/51 247/1/52 248/1/52
