# Blender 5.2.0 LTS
# www.blender.org
mtllib boneclaw bolt.mtl
o Mesh
v -0.720906 0.245931 0.220037
v -0.720906 0.307981 0.220037
v -0.733757 0.276956 0.220037
v -0.658856 0.245931 0.220037
v -0.689881 0.233079 0.220037
v -0.658856 0.307981 0.220037
v -0.689881 0.320832 0.220037
v -0.646005 0.276956 0.220037
v -0.716196 0.276956 0.044166
v -0.708489 0.295563 0.116426
v -0.708489 0.295563 0.044166
v -0.716196 0.276956 0.116426
v -0.689881 0.303271 0.116426
v -0.708489 0.258348 0.044166
v -0.689881 0.303271 0.044166
v -0.708489 0.258348 0.116426
v -0.671274 0.295563 0.044166
v -0.689881 0.250641 0.044166
v -0.671273 0.295563 0.116426
v -0.689881 0.250641 0.116426
v -0.663566 0.276956 0.116426
v -0.671274 0.258348 0.044166
v -0.663566 0.276956 0.044166
v -0.671273 0.258348 0.116426
v -0.671273 0.258348 0.116426
v -0.689881 0.233079 0.116426
v -0.689881 0.250641 0.116426
v -0.708489 0.258348 0.116426
v -0.658856 0.245931 0.116426
v -0.720906 0.245931 0.116426
v -0.646005 0.276956 0.116426
v -0.733757 0.276956 0.116426
v -0.663566 0.276956 0.116426
v -0.716196 0.276956 0.116426
v -0.671273 0.295563 0.116426
v -0.708489 0.295563 0.116426
v -0.658856 0.307981 0.116426
v -0.720906 0.307981 0.116426
v -0.689881 0.303271 0.116426
v -0.689881 0.320832 0.116426
v -0.689881 0.320832 0.116426
v -0.689881 0.320832 0.220037
v -0.658856 0.307981 0.116426
v -0.658856 0.307981 0.220037
v -0.720906 0.307981 0.220037
v -0.646005 0.276956 0.116426
v -0.720906 0.307981 0.116426
v -0.646005 0.276956 0.220037
v -0.733757 0.276956 0.220037
v -0.658856 0.245931 0.116426
v -0.733757 0.276956 0.116426
v -0.658856 0.245931 0.220037
v -0.720906 0.245931 0.220037
v -0.689881 0.233079 0.116426
v -0.720906 0.245931 0.116426
v -0.689881 0.233079 0.220037
vn -0.0000 -0.0000 1.0000
vn -1.0000 -0.0000 -0.0000
vn -0.7937 0.6083 -0.0000
vn -0.0000 1.0000 -0.0000
vn -0.7937 -0.6083 -0.0000
vn 0.7937 0.6083 -0.0000
vn -0.0000 -1.0000 -0.0000
vn 1.0000 -0.0000 -0.0000
vn 0.7937 -0.6083 -0.0000
vn -0.0000 -0.0000 -1.0000
vn 0.7937 0.6083 0.0001
vt 0.000000 0.000000
s 1
f 1/1/1 2/1/1 3/1/1
f 2/1/1 1/1/1 4/1/1
f 4/1/1 1/1/1 5/1/1
f 6/1/1 2/1/1 4/1/1
f 2/1/1 6/1/1 7/1/1
f 6/1/1 4/1/1 8/1/1
f 9/1/2 10/1/3 11/1/3
f 10/1/3 9/1/2 12/1/2
f 13/1/4 11/1/3 10/1/3
f 14/1/5 12/1/2 9/1/2
f 11/1/3 13/1/4 15/1/4
f 12/1/2 14/1/5 16/1/5
f 13/1/4 17/1/6 15/1/4
f 18/1/7 16/1/5 14/1/5
f 17/1/6 13/1/4 19/1/6
f 16/1/5 18/1/7 20/1/7
f 21/1/8 17/1/6 19/1/6
f 22/1/9 20/1/7 18/1/7
f 17/1/6 21/1/8 23/1/8
f 20/1/7 22/1/9 24/1/9
f 24/1/9 23/1/8 21/1/8
f 23/1/8 24/1/9 22/1/9
f 25/1/10 26/1/10 27/1/10
f 26/1/10 28/1/10 27/1/10
f 26/1/10 25/1/10 29/1/10
f 28/1/10 26/1/10 30/1/10
f 25/1/10 31/1/10 29/1/10
f 30/1/10 32/1/10 28/1/10
f 31/1/10 25/1/10 33/1/10
f 28/1/10 32/1/10 34/1/10
f 35/1/10 31/1/10 33/1/10
f 32/1/10 36/1/10 34/1/10
f 31/1/10 35/1/10 37/1/10
f 36/1/10 32/1/10 38/1/10
f 39/1/10 37/1/10 35/1/10
f 38/1/10 39/1/10 36/1/10
f 40/1/10 37/1/10 39/1/10
f 39/1/10 38/1/10 40/1/10
f 41/1/4 42/1/4 43/1/11
f 43/1/11 42/1/4 44/1/6
f 41/1/4 45/1/3 42/1/4
f 43/1/11 44/1/6 46/1/8
f 47/1/3 45/1/3 41/1/4
f 46/1/8 44/1/6 48/1/8
f 47/1/3 49/1/2 45/1/3
f 46/1/8 48/1/8 50/1/9
f 51/1/2 49/1/2 47/1/3
f 50/1/9 48/1/8 52/1/9
f 51/1/2 53/1/5 49/1/2
f 50/1/9 52/1/9 54/1/7
f 55/1/5 53/1/5 51/1/2
f 54/1/7 52/1/9 56/1/7
f 55/1/5 56/1/7 53/1/5
f 54/1/7 56/1/7 55/1/5
